<svg width="82" height="34" viewBox="0 0 82 34" fill="none" xmlns="http://www.w3.org/2000/svg">
<g clip-path="url(#clip0_16499_1137)">
<path d="M30.7777 21.4582C29.5059 21.1375 28.433 20.0053 28.1734 18.7091C28.0684 18.1859 28.081 17.3963 28.2021 16.9062C28.3639 16.2502 28.6203 15.7751 29.0931 15.2534C29.8541 14.4146 30.8903 14.0185 32.1184 14.0979C33.1046 14.1613 33.8601 14.4823 34.4661 15.095L34.7705 15.4026L34.3469 15.8129C34.1449 16.0096 33.94 16.203 33.7322 16.3929L33.5408 16.5627L33.3041 16.3307C32.9455 15.979 32.5653 15.8064 32.0667 15.7691C30.8039 15.6747 29.9675 16.5027 29.9752 17.8387C29.982 18.9704 30.5169 19.6951 31.4826 19.8811C32.1818 20.0155 32.7591 19.8455 33.2866 19.3494L33.5509 19.1012L34.7809 20.2706L34.4308 20.597C34.0019 20.9965 33.4372 21.3172 32.9111 21.4596C32.4207 21.5924 31.3071 21.5916 30.7777 21.4582ZM54.1589 21.5213C53.4324 21.4201 52.139 20.955 52.139 20.7949C52.139 20.7667 52.2745 20.4395 52.4405 20.0676L52.7422 19.3914L53.0008 19.5285C53.6355 19.8651 54.1611 19.9877 54.9786 19.9891C55.674 19.9908 55.7863 19.974 55.955 19.8432C56.1053 19.7267 56.1455 19.6399 56.1455 19.4304C56.1455 19.048 55.9741 18.9493 54.7638 18.6349C54.189 18.4853 53.5346 18.2667 53.3099 18.1487C52.561 17.7552 52.2303 17.1672 52.2882 16.3312C52.3899 14.8607 53.6374 14.0453 55.6024 14.1641C56.5929 14.2244 57.7333 14.5841 57.7237 14.8334C57.7169 15.016 57.2156 16.1399 57.1489 16.1226C57.1156 16.114 56.8154 16.006 56.4822 15.8826C55.4373 15.4959 54.4014 15.5894 54.2196 16.0873C54.1354 16.317 54.2196 16.5402 54.4514 16.6977C54.5413 16.7592 55.0494 16.9201 55.5808 17.0557C56.7561 17.3557 57.2897 17.6076 57.6499 18.0335C58.4388 18.9658 58.0446 20.5143 56.8578 21.144C56.7091 21.2228 56.4123 21.3354 56.1982 21.394C55.7978 21.5034 54.5774 21.5796 54.1592 21.5213H54.1589ZM62.2058 21.4343C60.9611 21.0567 60.0224 20.0889 59.7166 18.8672C59.5832 18.3346 59.5848 17.3949 59.7199 16.849C60.1558 15.0905 61.7409 13.9759 63.6326 14.0979C64.6369 14.1627 65.3902 14.4931 65.9767 15.1257L66.246 15.4163L65.0521 16.5834L64.7765 16.3079C64.0681 15.6 62.8241 15.5687 62.0902 16.2406C61.6592 16.6352 61.4758 17.1055 61.4752 17.8194C61.4736 18.7264 61.8218 19.3815 62.4838 19.7181C62.8009 19.8796 62.949 19.9109 63.3765 19.9081C63.9784 19.9038 64.375 19.75 64.791 19.3588L65.0641 19.1023L65.6378 19.6516C65.9532 19.9538 66.2115 20.2379 66.2118 20.2831C66.2129 20.4065 65.6222 20.9075 65.2021 21.1401C64.9985 21.2526 64.6456 21.3951 64.4182 21.4559C63.8573 21.6066 62.7366 21.5953 62.2056 21.4343H62.2058ZM40.361 20.5134L39.728 19.5356H38.671V21.4269H36.7181V14.2821H38.6587C40.2473 14.2821 40.6658 14.3026 40.9651 14.395C41.8275 14.6611 42.3903 15.1209 42.7005 15.8126C42.8547 16.1567 42.8782 16.3 42.8787 16.9087C42.8798 17.4956 42.8541 17.6684 42.7213 17.9738C42.572 18.3167 42.0866 18.866 41.708 19.1196L41.5468 19.2277L42.2178 20.2748C42.5868 20.8506 42.9112 21.361 42.9386 21.4093C42.9777 21.4778 42.7716 21.4963 41.9915 21.494L40.9941 21.4912L40.361 20.5134ZM40.4477 17.8223C40.9468 17.5692 41.0917 16.83 40.7552 16.2545C40.5535 15.9096 40.2777 15.8232 39.3803 15.8232H38.6035V18.0096L39.3948 17.982C39.9945 17.9616 40.2495 17.9229 40.4477 17.8223ZM79.4141 20.516L78.7783 19.5356H77.7265V21.4269H75.7738V14.2821H77.7145C79.3028 14.2821 79.7213 14.3026 80.0209 14.395C80.8641 14.6554 81.449 15.1354 81.7604 15.8232C81.9113 16.157 81.9348 16.3017 81.935 16.9087C81.935 17.5322 81.9148 17.6525 81.7492 18.0034C81.5756 18.3713 81.1364 18.8686 80.7638 19.1193L80.6025 19.228L81.2733 20.2748C81.6423 20.8506 81.9667 21.361 81.9943 21.4093C82.0334 21.4778 81.8265 21.4969 81.047 21.4966H80.0499L79.4141 20.516ZM79.4704 17.8194C79.8358 17.5956 79.9777 17.3446 79.9777 16.9218C79.9777 16.4652 79.7973 16.1149 79.475 15.946C79.2924 15.8499 79.0697 15.8234 78.4506 15.8232H77.6593V18.0096L78.4506 17.9846C79.0913 17.9644 79.2853 17.9329 79.4701 17.8197L79.4704 17.8194ZM6.22799 20.7801L6.21433 20.0986L3.08275 20.0582L4.65059 20.042C5.90327 20.0292 6.22499 20.0448 6.25259 20.1188C6.27173 20.1699 6.27692 20.4932 6.26435 20.837L6.24166 21.4619L6.22799 20.7801ZM45.0003 17.8544V14.2821H50.3202V15.8232H46.8133L46.8327 16.4362L46.8522 17.0492L49.9162 17.0867V18.5524L46.8522 18.5902V19.9209L50.4547 19.9584V21.4269H45.0003V17.8544ZM68.1648 17.8544V14.2821H73.5519V15.8232H70.0502V17.0841H73.0804V18.555H70.0502V19.9558H73.6191V21.4269H68.1648V17.8544ZM2.20125 19.6581L2.07278 19.5006L2.22448 19.6343C2.36661 19.7594 2.40652 19.8157 2.35295 19.8157C2.3401 19.8157 2.27177 19.7446 2.20125 19.6581ZM1.70788 18.3039C1.71116 18.2223 1.72701 18.2058 1.74861 18.2615C1.76801 18.3121 1.76555 18.3724 1.74314 18.3957C1.721 18.4191 1.70487 18.3778 1.70788 18.3039ZM1.70788 16.9733C1.71116 16.8914 1.72701 16.8749 1.74861 16.9306C1.76801 16.9812 1.76555 17.0415 1.74314 17.0651C1.721 17.0881 1.70487 17.0469 1.70788 16.973V16.9733ZM6.23893 14.1073C6.23893 13.7217 6.25041 13.573 6.26407 13.7766C6.27774 13.9802 6.27774 14.2955 6.2638 14.4772C6.25013 14.6588 6.23893 14.4922 6.2392 14.107L6.23893 14.1073ZM2.70035 13.4635C2.74901 13.4434 2.80695 13.4456 2.82937 13.4692C2.85178 13.4923 2.81215 13.509 2.74108 13.5059C2.66263 13.5025 2.64678 13.486 2.70035 13.4633V13.4635ZM6.93839 13.4596C7.1699 13.4459 7.54874 13.4459 7.78025 13.4596C8.01177 13.4732 7.82235 13.4843 7.35932 13.4843C6.89629 13.4843 6.70687 13.4729 6.93839 13.4596ZM11.9215 13.4596C12.2469 13.4463 12.5725 13.4463 12.8979 13.4596C13.1666 13.4726 12.9468 13.4834 12.4097 13.4834C11.8726 13.4834 11.6531 13.4726 11.9215 13.4593V13.4596ZM17.1094 13.4596C17.3785 13.4458 17.648 13.4458 17.9171 13.4596C18.1287 13.4738 17.9381 13.4849 17.4937 13.4846C17.0493 13.4846 16.876 13.4732 17.1091 13.4593L17.1094 13.4596ZM19.5672 13.4596C19.8187 13.4459 20.2125 13.4459 20.4427 13.4596C20.6723 13.4732 20.4667 13.4843 19.9851 13.484C19.5038 13.484 19.3155 13.4726 19.5669 13.4593L19.5672 13.4596Z" fill="#A4A8AB"/>
<path d="M24.0586 16.8038V8.25806H25.0016V25.3495H24.0586V16.8038Z" fill="#26A8E0"/>
<path d="M2.51054 21.3473C1.97098 21.2552 1.24965 20.8748 0.874093 20.4841C0.499626 20.0946 0.262373 19.6422 0.108759 19.0266C-0.037474 18.4381 -0.0361073 16.8225 0.112039 16.1032C0.380726 14.7967 1.10424 13.9582 2.27493 13.5966C2.52175 13.5201 3.09192 13.484 4.41294 13.4601L6.21421 13.428V14.7575L4.68217 14.7888C3.46092 14.8144 3.08919 14.8445 2.84811 14.9395C2.05325 15.2516 1.70557 16.0768 1.70366 17.6545C1.70229 18.6155 1.85645 19.2538 2.18336 19.6411C2.51874 20.0386 2.82897 20.096 4.64391 20.096H6.21421V21.4266L4.54769 21.4187C3.63093 21.4141 2.71445 21.382 2.51054 21.3473ZM7.85913 17.6619C7.20422 15.5911 6.64416 13.8101 6.61437 13.7043L6.55997 13.5119L8.20052 13.5133L8.96121 16.1916C9.25039 17.2085 9.53876 18.2256 9.82631 19.243C9.88371 19.448 9.94603 19.5996 9.96489 19.5799C9.98402 19.56 10.3238 18.1947 10.7201 16.5453L11.4412 13.5465L12.3883 13.5272C13.2476 13.5096 13.3386 13.5192 13.3687 13.6324C13.867 15.4919 14.9967 19.5151 15.0319 19.5549C15.0582 19.5851 15.4439 18.2453 15.8886 16.578L16.6976 13.5465L17.4881 13.5266C18.1414 13.5104 18.2748 13.5244 18.2562 13.6063C18.2442 13.6606 17.7341 15.443 17.1229 17.5675L16.0118 21.43L14.0723 21.3922L13.261 18.433C12.8147 16.8052 12.4293 15.4973 12.4047 15.526C12.3801 15.5547 12.0504 16.8945 11.6721 18.5029L10.9841 21.4275H9.05004L7.85913 17.6619ZM19.2107 17.4694V13.5116H20.8269V21.4272H19.2107V17.4694Z" fill="#30343E"/>
</g>
<defs>
<clipPath id="clip0_16499_1137">
<rect width="82" height="17.0914" fill="white" transform="translate(0 8.25806)"/>
</clipPath>
</defs>
</svg>
