<svg width="90" height="34" viewBox="0 0 90 34" fill="none" xmlns="http://www.w3.org/2000/svg">
<rect width="34" height="34" fill="#515070"/>
<path d="M18.3924 24.4863V21.5381C18.3924 21.1381 18.7166 20.8141 19.1164 20.8141C20.5429 20.8141 21.319 19.3511 21.4267 16.4631H19.1164C18.7167 16.4631 18.3924 16.1386 18.3924 15.739V9.51383C18.3924 9.11396 18.7166 8.78996 19.1164 8.78996H25.2759C25.6756 8.78996 26 9.11432 26 9.51383V15.7391C26 17.1234 25.8603 18.3937 25.5859 19.5157C25.3041 20.6658 24.8715 21.6713 24.3003 22.5045C23.713 23.3608 22.9776 24.0327 22.116 24.5007C21.2478 24.9716 20.2386 25.2106 19.1161 25.2106C18.7167 25.2103 18.3924 24.886 18.3924 24.4863ZM9.05468 20.8139C8.65496 20.8139 8.33081 21.1381 8.33081 21.5376V24.4864C8.33081 24.886 8.65496 25.2101 9.05468 25.2101C10.1767 25.2101 11.1864 24.971 12.054 24.5001C12.9161 24.0322 13.6513 23.3609 14.2386 22.504C14.8101 21.6707 15.2427 20.6652 15.5245 19.5145C15.799 18.3926 15.9385 17.1222 15.9385 15.7385V9.51323C15.9385 9.11335 15.614 8.78936 15.2144 8.78936H9.05468C8.65496 8.78936 8.33081 9.11366 8.33081 9.51323V15.7385C8.33081 16.1383 8.65496 16.4625 9.05468 16.4625H11.3325C11.2261 19.3508 10.4613 20.8139 9.05468 20.8139Z" fill="white"/>
<path d="M47.0799 5.34V12.55C47.0799 12.802 47.1359 12.984 47.2479 13.096C47.3692 13.208 47.5652 13.264 47.8359 13.264H51.1539L51.2519 14.888C50.3092 14.9907 48.9466 15.042 47.1639 15.042C46.4172 15.042 45.8619 14.8553 45.4979 14.482C45.1339 14.1087 44.9519 13.6093 44.9519 12.984V5.34H47.0799Z" fill="#515070"/>
<path d="M52.8684 6.236C53.475 5.51733 54.553 5.158 56.1024 5.158C57.6517 5.158 58.7297 5.51733 59.3364 6.236C59.943 6.94533 60.2464 8.25667 60.2464 10.17C60.2464 12.0833 59.943 13.3993 59.3364 14.118C58.7297 14.8273 57.6517 15.182 56.1024 15.182C54.553 15.182 53.475 14.8273 52.8684 14.118C52.271 13.3993 51.9724 12.0833 51.9724 10.17C51.9724 8.25667 52.271 6.94533 52.8684 6.236ZM57.5864 7.566C57.325 7.10867 56.8304 6.88 56.1024 6.88C55.3744 6.88 54.875 7.10867 54.6044 7.566C54.343 8.02333 54.2124 8.89133 54.2124 10.17C54.2124 11.4487 54.343 12.3167 54.6044 12.774C54.875 13.2313 55.3744 13.46 56.1024 13.46C56.8304 13.46 57.325 13.2313 57.5864 12.774C57.857 12.3167 57.9924 11.4487 57.9924 10.17C57.9924 8.89133 57.857 8.02333 57.5864 7.566Z" fill="#515070"/>
<path d="M69.4807 15H67.2267L66.4987 12.046C66.4053 11.738 66.2793 11.528 66.1207 11.416C65.9713 11.2947 65.752 11.234 65.4627 11.234L63.9647 11.22V15H61.8647V5.34C62.7327 5.256 63.96 5.214 65.5467 5.214C66.844 5.214 67.7633 5.41933 68.3047 5.83C68.846 6.24067 69.1167 6.98733 69.1167 8.07C69.1167 8.77933 68.972 9.33467 68.6827 9.736C68.4027 10.1373 67.9313 10.38 67.2687 10.464V10.534C68.006 10.702 68.4633 11.1873 68.6407 11.99L69.4807 15ZM63.9647 9.582H65.5047C66.0647 9.582 66.4473 9.48867 66.6527 9.302C66.858 9.106 66.9607 8.742 66.9607 8.21C66.9607 7.678 66.858 7.31867 66.6527 7.132C66.4567 6.94533 66.074 6.852 65.5047 6.852L63.9647 6.866V9.582Z" fill="#515070"/>
<path d="M77.2868 13.334L77.3848 14.902C76.5074 14.9953 75.0141 15.042 72.9048 15.042C72.2608 15.042 71.7474 14.8693 71.3648 14.524C70.9821 14.1693 70.7861 13.6933 70.7768 13.096V7.244C70.7861 6.64667 70.9821 6.17533 71.3648 5.83C71.7474 5.47533 72.2608 5.298 72.9048 5.298C75.0141 5.298 76.5074 5.34467 77.3848 5.438L77.2868 7.02H73.5768C73.3434 7.02 73.1754 7.076 73.0728 7.188C72.9701 7.3 72.9188 7.482 72.9188 7.734V9.204H76.7688V10.744H72.9188V12.606C72.9188 12.8673 72.9701 13.054 73.0728 13.166C73.1754 13.278 73.3434 13.334 73.5768 13.334H77.2868Z" fill="#515070"/>
<path d="M86.6832 5.34H88.7412C89.2545 5.34 89.5205 5.606 89.5392 6.138L89.9172 15H87.9012L87.5792 7.006H87.3412L85.8852 12.984C85.7918 13.4413 85.5025 13.67 85.0172 13.67H83.6172C83.1318 13.67 82.8425 13.4413 82.7492 12.984L81.2792 7.006H81.0412L80.7612 15H78.7452L79.0952 6.138C79.1232 5.606 79.3892 5.34 79.8932 5.34H81.9512C82.4085 5.34 82.6885 5.56867 82.7912 6.026L83.9672 10.842C84.0418 11.15 84.1258 11.6027 84.2192 12.2H84.4012C84.4105 12.1533 84.4432 11.962 84.4992 11.626C84.5645 11.29 84.6158 11.0287 84.6532 10.842L85.8152 6.026C85.9272 5.56867 86.2165 5.34 86.6832 5.34Z" fill="#515070"/>
<path d="M47.1079 31H44.9799V21.34H47.1079V31Z" fill="#515070"/>
<path d="M49.0678 31V21.34C49.9358 21.256 51.1585 21.214 52.7358 21.214C54.0891 21.214 55.0131 21.4333 55.5078 21.872C56.0118 22.3107 56.2638 23.1413 56.2638 24.364C56.2638 25.5867 56.0258 26.422 55.5498 26.87C55.0831 27.3087 54.2385 27.528 53.0158 27.528C52.3998 27.528 51.7931 27.4907 51.1958 27.416V31H49.0678ZM51.1958 25.89H52.6938C53.2445 25.8807 53.6178 25.7733 53.8138 25.568C54.0191 25.3627 54.1218 24.9613 54.1218 24.364C54.1218 23.7667 54.0191 23.3653 53.8138 23.16C53.6178 22.9547 53.2445 22.852 52.6938 22.852L51.1958 22.866V25.89Z" fill="#515070"/>
<path d="M61.2374 27.346L59.2914 26.66C58.5727 26.3987 58.0594 26.044 57.7514 25.596C57.4434 25.148 57.2894 24.56 57.2894 23.832C57.2894 22.768 57.5461 22.0587 58.0594 21.704C58.5821 21.34 59.4967 21.158 60.8034 21.158C62.0354 21.158 63.0947 21.284 63.9814 21.536L63.8414 22.992C63.0294 22.964 62.0214 22.95 60.8174 22.95C60.2574 22.95 59.8841 23.0013 59.6974 23.104C59.5107 23.1973 59.4174 23.44 59.4174 23.832C59.4174 24.1493 59.4874 24.378 59.6274 24.518C59.7674 24.658 60.0334 24.7933 60.4254 24.924L62.2594 25.554C63.0061 25.8153 63.5334 26.1747 63.8414 26.632C64.1494 27.08 64.3034 27.668 64.3034 28.396C64.3034 29.4787 64.0421 30.216 63.5194 30.608C62.9967 30.9907 62.0634 31.182 60.7194 31.182C59.6274 31.182 58.5214 31.0607 57.4014 30.818L57.5274 29.278C59.5154 29.3247 60.5794 29.348 60.7194 29.348C61.2887 29.348 61.6667 29.2873 61.8534 29.166C62.0494 29.0447 62.1474 28.7927 62.1474 28.41C62.1474 28.0833 62.0821 27.8547 61.9514 27.724C61.8207 27.584 61.5827 27.458 61.2374 27.346Z" fill="#515070"/>
<path d="M73.4738 21.34V27.15C73.4738 28.6247 73.1892 29.6653 72.6198 30.272C72.0598 30.8787 71.0892 31.182 69.7078 31.182C68.2518 31.182 67.2252 30.8787 66.6278 30.272C66.0398 29.6653 65.7458 28.6247 65.7458 27.15V21.34H67.8738V27.15C67.8738 28.0367 67.9952 28.6433 68.2378 28.97C68.4898 29.2967 68.9472 29.46 69.6098 29.46C70.2632 29.46 70.7112 29.2967 70.9538 28.97C71.2058 28.6433 71.3318 28.0367 71.3318 27.15V21.34H73.4738Z" fill="#515070"/>
<path d="M83.1011 21.34H85.1591C85.6725 21.34 85.9385 21.606 85.9571 22.138L86.3351 31H84.3191L83.9971 23.006H83.7591L82.3031 28.984C82.2098 29.4413 81.9205 29.67 81.4351 29.67H80.0351C79.5498 29.67 79.2605 29.4413 79.1671 28.984L77.6971 23.006H77.4591L77.1791 31H75.1631L75.5131 22.138C75.5411 21.606 75.8071 21.34 76.3111 21.34H78.3691C78.8265 21.34 79.1065 21.5687 79.2091 22.026L80.3851 26.842C80.4598 27.15 80.5438 27.6027 80.6371 28.2H80.8191C80.8285 28.1533 80.8611 27.962 80.9171 27.626C80.9825 27.29 81.0338 27.0287 81.0711 26.842L82.2331 22.026C82.3451 21.5687 82.6345 21.34 83.1011 21.34Z" fill="#515070"/>
</svg>
